<?xml version="1.0" encoding="UTF-8"?>
<svg id="Capa_1" data-name="Capa 1" xmlns="http://www.w3.org/2000/svg" version="1.1" viewBox="0 0 164 38">
  <defs>
    <style>
      .cls-1 {
        fill: #20d120;
      }

      .cls-1, .cls-2, .cls-3, .cls-4 {
        stroke-width: 0px;
      }

      .cls-2 {
        fill: #58585a;
      }

      .cls-3 {
        fill: #333;
      }

      .cls-4 {
        fill: #fff;
      }
    </style>
  </defs>
  <g>
    <path class="cls-4" d="M46.7,15.6c.5-.3,1.2-.5,1.9-.5s1.3.2,1.8.5c.5.4.9.8,1.1,1.4l1.8-.9c-.2-.5-.5-1-.9-1.5-.4-.4-1-.8-1.6-1.1-.6-.3-1.4-.4-2.2-.4s-1.5.1-2.2.4c-.7.3-1.3.7-1.8,1.2-.5.5-.9,1.1-1.2,1.8-.3.7-.4,1.5-.4,2.3s.1,1.6.4,2.3c.3.7.7,1.3,1.2,1.8.5.5,1.1.9,1.8,1.2.7.3,1.4.4,2.2.4s1.5-.1,2.2-.4c.6-.3,1.2-.6,1.6-1.1.4-.4.8-.9.9-1.5l-1.8-.9c-.2.6-.6,1-1.1,1.4s-1.1.5-1.8.5-1.3-.2-1.9-.5c-.5-.3-1-.8-1.2-1.4s-.4-1.3-.4-2,.1-1.5.4-2,.7-1,1.2-1.4Z"/>
    <rect class="cls-4" x="54.8" y="13.3" width="2" height="11.4"/>
    <polygon class="cls-4" points="58.4 15 60.3 15 61.9 12.4 59.4 12.4 58.4 15"/>
    <rect class="cls-4" x="58.4" y="16.5" width="2" height="8.2"/>
    <path class="cls-4" d="M67.7,16.7c-.5-.3-1-.4-1.6-.4s-1.1.1-1.5.4c-.3.2-.6.5-.8.9v-1.1h-1.8v8.2h2v-4.8c0-.4,0-.7.2-.9.1-.3.3-.5.6-.6s.5-.2.9-.2.6,0,.9.2c.2.1.4.3.6.6.1.3.2.6.2.9v4.8h2v-5.2c0-.6-.1-1.1-.4-1.6-.3-.5-.6-.8-1.1-1.1Z"/>
    <rect class="cls-4" x="70.9" y="13.4" width="2" height="2.1"/>
    <rect class="cls-4" x="70.9" y="16.5" width="2" height="8.2"/>
    <path class="cls-4" d="M77.4,18.4c.3-.2.7-.3,1.1-.3s.9.1,1.2.4.6.6.8,1l1.7-.8c-.2-.5-.4-.9-.8-1.3-.4-.4-.8-.6-1.3-.8-.5-.2-1-.3-1.6-.3s-1.5.2-2.2.6c-.6.4-1.2.9-1.5,1.5-.4.6-.6,1.4-.6,2.2s.2,1.5.6,2.2c.4.6.9,1.2,1.5,1.5s1.4.6,2.2.6,1.1-.1,1.6-.3.9-.5,1.3-.9.6-.8.8-1.2l-1.7-.8c-.2.4-.4.8-.8,1-.4.2-.8.4-1.2.4s-.8-.1-1.1-.3-.6-.5-.8-.9c-.2-.4-.3-.8-.3-1.3s0-.9.3-1.3c.2-.4.5-.7.8-.9Z"/>
    <path class="cls-4" d="M89,16.6c-.5-.2-1.1-.4-1.8-.4s-1.1,0-1.5.3c-.5.2-.9.4-1.2.7-.3.3-.6.7-.8,1.1l1.6.8c.2-.4.4-.7.7-.9.3-.2.7-.3,1.1-.3s.8.1,1.1.4c.3.2.4.5.4.9v.3l-2.4.4c-.6.1-1.2.3-1.6.5-.4.2-.7.5-.9.9-.2.4-.3.8-.3,1.2s.1.9.3,1.2c.2.4.6.6,1,.8.4.2.9.3,1.5.3s.9,0,1.2-.2.7-.3,1-.5c.1,0,.2-.2.3-.3v.9h1.9v-5.4c0-.6-.1-1.1-.4-1.5-.3-.4-.7-.8-1.2-1ZM88.4,22.3c-.2.3-.4.6-.7.7-.3.2-.7.3-1.1.3s-.6,0-.8-.2-.3-.4-.3-.7,0-.5.3-.7c.2-.2.5-.3.9-.4l2.1-.3v.3c0,.4,0,.7-.3,1Z"/>
    <path class="cls-4" d="M95.5,13.4l-3.9,11.2h2.2l.8-2.4h4.3l.8,2.4h2.2l-3.9-11.2h-2.6ZM95.3,20.4l1.6-4.7,1.6,4.7h-3.2Z"/>
    <path class="cls-4" d="M109.7,16.8c-.6-.4-1.3-.6-2.1-.6s-1.2.1-1.7.4c-.3.2-.6.4-.8.7v-4.1h-2v11.4h1.8v-1c.3.3.6.6,1,.8.5.2,1,.4,1.6.4s1.5-.2,2.1-.6c.6-.4,1.1-.9,1.5-1.5.4-.7.5-1.4.5-2.2s-.2-1.5-.5-2.2c-.4-.6-.9-1.1-1.5-1.5ZM109.4,21.8c-.2.4-.5.7-.8.9-.3.2-.8.3-1.2.3s-.8-.1-1.2-.3-.6-.5-.8-.9c-.2-.4-.3-.8-.3-1.3s0-.9.3-1.3c.2-.4.5-.7.8-.9s.7-.3,1.2-.3.9.1,1.2.3c.4.2.6.5.8.9.2.4.3.8.3,1.3s0,.9-.3,1.3Z"/>
    <path class="cls-4" d="M115.8,16.7c-.3.2-.6.5-.7.9v-1.2h-1.8v8.2h2v-4.5c0-.6.2-1.1.5-1.4.3-.3.8-.5,1.4-.5h.7v-1.7h-.5c-.6,0-1.1.1-1.5.4Z"/>
    <path class="cls-4" d="M124.1,16.6c-.5-.2-1.1-.4-1.8-.4s-1.1,0-1.5.3c-.5.2-.9.4-1.2.7-.3.3-.6.7-.8,1.1l1.6.8c.2-.4.4-.7.7-.9.3-.2.7-.3,1.1-.3s.8.1,1.1.4c.3.2.4.5.4.9v.3l-2.4.4c-.6.1-1.2.3-1.6.5-.4.2-.7.5-.9.9-.2.4-.3.8-.3,1.2s.1.9.3,1.2c.2.4.6.6,1,.8.4.2.9.3,1.5.3s.9,0,1.2-.2.7-.3,1-.5c.1,0,.2-.2.3-.3v.9h1.9v-5.4c0-.6-.1-1.1-.4-1.5-.3-.4-.7-.8-1.2-1ZM123.5,22.3c-.2.3-.4.6-.7.7-.3.2-.7.3-1.1.3s-.6,0-.8-.2-.3-.4-.3-.7,0-.5.3-.7c.2-.2.5-.3.9-.4l2.1-.3v.3c0,.4,0,.7-.3,1Z"/>
    <path class="cls-4" d="M133.3,16.7c-.5-.3-1-.4-1.6-.4s-1.1.1-1.5.4c-.3.2-.5.4-.7.7v-4.1h-2v11.4h2v-4.8c0-.4,0-.7.2-.9.1-.3.3-.5.6-.6s.5-.2.9-.2.6,0,.9.2.4.3.6.6c.1.3.2.6.2.9v4.8h2v-5.2c0-.6-.1-1.1-.4-1.6-.3-.5-.6-.8-1.1-1.1Z"/>
    <path class="cls-4" d="M141.7,16.6c-.5-.2-1.1-.4-1.8-.4s-1.1,0-1.5.3c-.5.2-.9.4-1.2.7-.3.3-.6.7-.8,1.1l1.6.8c.2-.4.4-.7.7-.9.3-.2.7-.3,1.1-.3s.8.1,1.1.4c.3.2.4.5.4.9v.3l-2.4.4c-.6.1-1.2.3-1.6.5-.4.2-.7.5-.9.9-.2.4-.3.8-.3,1.2s.1.9.3,1.2c.2.4.6.6,1,.8.4.2.9.3,1.5.3s.9,0,1.2-.2.7-.3,1-.5c.1,0,.2-.2.3-.3v.9h1.9v-5.4c0-.6-.1-1.1-.4-1.5-.3-.4-.7-.8-1.2-1ZM141.1,22.3c-.2.3-.4.6-.7.7-.3.2-.7.3-1.1.3s-.6,0-.8-.2-.3-.4-.3-.7,0-.5.3-.7c.2-.2.5-.3.9-.4l2.1-.3v.3c0,.4,0,.7-.3,1Z"/>
    <path class="cls-4" d="M156.9,17.8c-.3-.5-.6-.8-1.1-1.1-.5-.3-1-.4-1.6-.4s-1.2.2-1.7.5c-.3.2-.6.5-.8.8-.2-.3-.4-.6-.7-.8-.5-.4-1.1-.5-1.8-.5s-1.1.1-1.6.4c-.3.2-.5.5-.7.8v-1.1h-1.8v8.2h2v-4.8c0-.4,0-.7.2-.9.1-.3.3-.5.6-.6s.5-.2.8-.2.6,0,.8.2c.2.1.4.3.5.6.1.3.2.6.2.9v4.8h2v-4.8c0-.4,0-.7.2-.9.1-.3.3-.5.6-.6s.5-.2.8-.2.6,0,.8.2c.2.1.4.3.5.6.1.3.2.6.2.9v4.8h2v-5.2c0-.6-.1-1.1-.4-1.6Z"/>
  </g>
  <g>
    <rect class="cls-4" x="8.4" y="5.8" width="26.3" height="26.3" rx="4.7" ry="4.7" transform="translate(43.1 38) rotate(180)"/>
    <g>
      <path class="cls-2" d="M20.6,30.8c1.9.4,3.8-.4,4.9-1.9.3-.5.6-1.1.8-1.9.4-1.4.2-2.6,0-3.3.6,0,1.4.1,2.4,0,1.1-.1,2.3-.3,3.2-1.1.9-.8,1.3-1.8,1.4-2.4,0-.3.6-2.1-.5-3.9-1.1-1.8-3-2.1-3.3-2.1h-12.7v12.7c.4,2,1.9,3.5,3.8,3.9h0ZM19.2,16.4h10c1.2.3,2,1.4,1.9,2.6,0,1-.8,1.9-1.9,2.2h-5.3v5.4c-.3,1.1-1.2,1.9-2.3,1.9-1.1,0-2.2-.8-2.4-1.9v-10.2h0Z"/>
      <rect class="cls-3" x="16.7" y="23.8" width="2.4" height=".8"/>
      <rect class="cls-3" x="26.4" y="14.2" width=".8" height="2.2"/>
      <path class="cls-3" d="M27.2,21.2c0,.9,0,1.7,0,2.6-.3,0-.5,0-.8,0v-2.5h.8Z"/>
      <path class="cls-3" d="M26.4,24.6c-.8,0-1.7,0-2.5,0v-.8h2.4c0,.1,0,.3,0,.4,0,.1,0,.3,0,.4h0Z"/>
      <path class="cls-4" d="M21.6,28.6c1.1,0,2.1-.8,2.3-1.9v-5.4h5.3c1-.3,1.8-1.2,1.9-2.2,0-1.2-.7-2.3-1.9-2.6h-10v10.2c.3,1.1,1.3,1.9,2.4,1.9h0Z"/>
      <path class="cls-1" d="M22.5,7.2c-1.9-.4-3.8.4-4.9,1.9-.3.5-.6,1.1-.8,1.9-.4,1.4-.2,2.6,0,3.3-.6,0-1.4-.1-2.4,0-1.1.1-2.3.3-3.2,1.1-.9.8-1.3,1.8-1.4,2.4,0,.3-.6,2.1.5,3.9,1.1,1.8,3,2.1,3.3,2.1h12.7v-12.7c-.4-2-1.9-3.5-3.8-3.9h0ZM23.9,21.6h-10c-1.2-.3-2-1.4-1.9-2.6,0-1,.8-1.9,1.9-2.2h5.3v-5.4c.3-1.1,1.2-1.9,2.3-1.9,1.1,0,2.2.8,2.4,1.9v10.2h0Z"/>
      <path class="cls-4" d="M21.5,9.5c-1.1,0-2.1.8-2.3,1.9v5.4h-5.3c-1,.3-1.8,1.2-1.9,2.2,0,1.2.7,2.3,1.9,2.6h10v-10.2c-.3-1.1-1.3-1.9-2.4-1.9h0Z"/>
    </g>
  </g>
</svg>