<?xml version="1.0" encoding="UTF-8"?>
<svg id="Capa_1" data-name="Capa 1" xmlns="http://www.w3.org/2000/svg" version="1.1" viewBox="0 0 38 38">
  <defs>
    <style>
      .cls-1 {
        fill: #20d120;
      }

      .cls-1, .cls-2, .cls-3, .cls-4 {
        stroke-width: 0px;
      }

      .cls-2 {
        fill: #58585a;
      }

      .cls-3 {
        fill: #333;
      }

      .cls-4 {
        fill: #fff;
      }
    </style>
  </defs>
  <rect class="cls-4" x="3.9" y="3.9" width="30.2" height="30.2" rx="4.7" ry="4.7" transform="translate(38 38) rotate(180)"/>
  <g>
    <path class="cls-2" d="M17.9,32.6c2.1.4,4.4-.4,5.7-2.2.3-.5.7-1.2.9-2.2.4-1.6.2-3,0-3.8.6,0,1.6.1,2.7,0,1.3-.2,2.6-.3,3.7-1.3,1-.9,1.4-2,1.6-2.8,0-.3.7-2.4-.6-4.5-1.3-2-3.5-2.4-3.8-2.4h-14.6v14.6c.4,2.3,2.2,4.1,4.4,4.5h0ZM16.2,16.1h11.5c1.4.4,2.3,1.6,2.2,3,0,1.2-1,2.2-2.2,2.5h-6.1v6.2c-.3,1.3-1.4,2.2-2.7,2.2-1.3,0-2.5-.9-2.8-2.2v-11.7h0Z"/>
    <rect class="cls-3" x="13.5" y="24.5" width="2.8" height=".9"/>
    <rect class="cls-3" x="24.5" y="13.5" width=".9" height="2.6"/>
    <path class="cls-3" d="M25.5,21.6c0,1,0,2,0,3-.3,0-.6,0-.9,0v-2.9h.9Z"/>
    <path class="cls-3" d="M24.6,25.5c-1,0-1.9,0-2.9,0v-.9h2.8c0,.2,0,.3,0,.5,0,.1,0,.3,0,.4h0Z"/>
    <path class="cls-4" d="M19.1,30c1.3,0,2.4-.9,2.7-2.2v-6.2h6.1c1.2-.3,2.1-1.3,2.2-2.5.1-1.3-.8-2.6-2.2-3h-11.5v11.7c.3,1.3,1.5,2.2,2.8,2.2h0Z"/>
    <path class="cls-1" d="M20.1,5.4c-2.1-.4-4.4.4-5.7,2.2-.3.5-.7,1.2-.9,2.2-.4,1.6-.2,3,0,3.8-.6,0-1.6-.1-2.7,0-1.3.2-2.6.3-3.7,1.3-1,.9-1.4,2-1.6,2.8,0,.3-.7,2.4.6,4.5,1.3,2,3.5,2.4,3.8,2.4h14.6v-14.6c-.4-2.3-2.2-4.1-4.4-4.5h0ZM21.8,21.9h-11.5c-1.4-.4-2.3-1.6-2.2-3,0-1.2,1-2.2,2.2-2.5h6.1v-6.2c.3-1.3,1.4-2.2,2.7-2.2,1.3,0,2.5.9,2.8,2.2v11.7h0Z"/>
    <path class="cls-4" d="M19,8c-1.3,0-2.4.9-2.7,2.2v6.2h-6.1c-1.2.3-2.1,1.3-2.2,2.5-.1,1.3.8,2.6,2.2,3h11.5v-11.7c-.3-1.3-1.5-2.2-2.8-2.2h0Z"/>
  </g>
</svg>